<?xml version="1.0" encoding="UTF-8" standalone="no"?>
<!-- Created with Inkscape (http://www.inkscape.org/) -->

<svg
   width="48"
   height="48"
   viewBox="0 0 12.7 12.7"
   version="1.1"
   id="svg5"
   inkscape:version="1.1.2 (0a00cf5339, 2022-02-04)"
   sodipodi:docname="default_pic.svg"
   inkscape:export-filename="/home/kim/Workspace/Go/src/borderstone.org/kimmunity/static/images/default_pic.png"
   inkscape:export-xdpi="512"
   inkscape:export-ydpi="512"
   xmlns:inkscape="http://www.inkscape.org/namespaces/inkscape"
   xmlns:sodipodi="http://sodipodi.sourceforge.net/DTD/sodipodi-0.dtd"
   xmlns="http://www.w3.org/2000/svg"
   xmlns:svg="http://www.w3.org/2000/svg">
  <sodipodi:namedview
     id="namedview7"
     pagecolor="#363645"
     bordercolor="#111111"
     borderopacity="1"
     inkscape:pageshadow="0"
     inkscape:pageopacity="1"
     inkscape:pagecheckerboard="false"
     inkscape:document-units="px"
     showgrid="false"
     units="px"
     inkscape:zoom="8"
     inkscape:cx="-10.625"
     inkscape:cy="26.125"
     inkscape:window-width="1920"
     inkscape:window-height="1018"
     inkscape:window-x="0"
     inkscape:window-y="32"
     inkscape:window-maximized="1"
     inkscape:current-layer="layer1" />
  <defs
     id="defs2" />
  <g
     inkscape:label="Layer 1"
     inkscape:groupmode="layer"
     id="layer1">
    <circle
       style="fill:#edd096;fill-opacity:1;stroke-width:0.302626"
       id="path846"
       cx="6.3499999"
       cy="6.3499999"
       r="6.3499999" />
    <circle
       style="fill:#ae4751;fill-opacity:1;stroke-width:0.437853"
       id="path968"
       cx="6.3499999"
       cy="5.2916665"
       r="2.1166666" />
    <path
       id="path968-3"
       style="fill:#ae4751;fill-opacity:1;stroke-width:2.68918"
       d="m 24,29 c -7.179702,0 -13,5.837945 -13,13.017647 0.0089,0.772962 0.08664,1.552541 0.232422,2.311682 3.822895,2.409877 8.248507,3.682509 12.767578,3.688318 4.519071,-0.0058 8.944683,-1.28637 12.767578,-3.696247 C 36.913361,43.562259 36.991143,42.772962 37,42 37,34.820298 31.179702,29 24,29 Z"
       transform="scale(0.26458333)"
       sodipodi:nodetypes="scccccs" />
    <path
       id="circle1100"
       style="fill:#ae4751;fill-opacity:1;stroke-width:0.481632"
       d="m 8.6783052,5.3231791 c 0,1.2858875 -1.0424178,-0.010029 -2.3283053,-0.010029 -1.2858875,0 -2.3283053,1.2959188 -2.3283053,0.010029 0,-1.2858875 1.0424178,-2.3283053 2.3283053,-2.3283053 1.2858875,0 2.3283053,1.0424178 2.3283053,2.3283053 z"
       sodipodi:nodetypes="sssss" />
  </g>
</svg>
