<?xml version="1.0" encoding="UTF-8" standalone="no"?>
<!-- Created with Inkscape (http://www.inkscape.org/) -->

<svg
   width="260"
   height="42"
   viewBox="0 0 68.791705 11.1125"
   version="1.1"
   id="svg5"
   inkscape:version="1.1.2 (0a00cf5339, 2022-02-04, custom)"
   sodipodi:docname="kimmunity_titlebar.svg"
   inkscape:export-filename="/home/kim/Workspace/Go/src/borderstone.org/kimmunity/static/images/kimmunity.png"
   inkscape:export-xdpi="192"
   inkscape:export-ydpi="192"
   xmlns:inkscape="http://www.inkscape.org/namespaces/inkscape"
   xmlns:sodipodi="http://sodipodi.sourceforge.net/DTD/sodipodi-0.dtd"
   xmlns="http://www.w3.org/2000/svg"
   xmlns:svg="http://www.w3.org/2000/svg">
  <sodipodi:namedview
     id="namedview7"
     pagecolor="#21222c"
     bordercolor="#111111"
     borderopacity="1"
     inkscape:pageshadow="0"
     inkscape:pageopacity="0"
     inkscape:pagecheckerboard="false"
     inkscape:document-units="px"
     showgrid="false"
     units="px"
     showguides="false"
     inkscape:guide-bbox="true"
     inkscape:zoom="2.8284272"
     inkscape:cx="167.93786"
     inkscape:cy="27.75394"
     inkscape:window-width="1920"
     inkscape:window-height="1051"
     inkscape:window-x="0"
     inkscape:window-y="0"
     inkscape:window-maximized="1"
     inkscape:current-layer="layer1"
     fit-margin-top="0"
     fit-margin-left="0"
     fit-margin-right="0"
     fit-margin-bottom="0"
     inkscape:lockguides="true" />
  <defs
     id="defs2" />
  <g
     inkscape:label="Layer 1"
     inkscape:groupmode="layer"
     id="layer1"
     transform="translate(-0.30143306,15.487426)">
    <g
       id="g10657"
       transform="translate(0,0.11547265)">
      <path
         id="path1425"
         style="fill:#f6d78c;stroke-width:0.61725;stroke-linecap:round"
         inkscape:transform-center-x="-8.9932586e-05"
         inkscape:transform-center-y="-1.2712887"
         d="m 7.3037731,-13.754808 a 0.70628345,0.70628345 0 0 0 -0.7062828,0.706284 0.70628345,0.70628345 0 0 0 0.7062828,0.706283 0.70628345,0.70628345 0 0 0 0.7062829,-0.706283 0.70628345,0.70628345 0 0 0 -0.7062829,-0.706284 z m -0.8294007,1.007006 c -0.4012061,0.122824 -0.7806029,0.337063 -1.1052915,0.642484 l -0.2700304,0.357969 -7.343e-4,6.68e-4 c -0.057203,0.0503 -0.09001,0.122804 -0.089988,0.198989 0,0.146276 0.1185796,0.264857 0.2648566,0.264857 0.146277,0 0.2648566,-0.118581 0.2648566,-0.264857 1.67e-5,-0.04839 -0.013231,-0.09586 -0.038284,-0.137256 l 0.082078,-0.207609 0.1338064,0.133808 1.5877588,1.587413 1.4663641,-1.466366 c -0.2257363,-0.0181 -0.4065943,-0.209734 -0.4065943,-0.439703 0,-0.20457 0.1429975,-0.378829 0.3334841,-0.427633 -0.1802369,-0.102242 -0.3693304,-0.18334 -0.5635087,-0.242785 -0.1265041,0.349181 -0.4580107,0.581855 -0.8294008,0.582133 -0.37139,-2.82e-4 -0.7028966,-0.232952 -0.8294007,-0.582133 z m 2.3302535,0.405561 c -0.1462771,0 -0.2648567,0.118581 -0.2648567,0.264857 0,0.146276 0.1185796,0.264856 0.2648567,0.264856 0.048394,1.8e-5 0.095865,-0.01322 0.1372551,-0.03828 l 0.2151957,0.07449 -0.1413943,0.141394 -1.5877593,1.588104 1.4663663,1.4663659 c 0.017953,-0.2218824 0.2035125,-0.4004495 0.4283225,-0.4062498 0.00377,-9.78e-5 0.00761,0 0.01139,0 0.2044193,0 0.3783366,0.1428596 0.427287,0.3331385 0.1023263,-0.1804135 0.1839763,-0.3695148 0.2434751,-0.5638542 -0.3491913,-0.1265008 -0.5818605,-0.4580089 -0.5821395,-0.8294004 3.531e-4,-0.37139 0.2329502,-0.702896 0.5821325,-0.8294 -0.1228291,-0.401208 -0.3370625,-0.780603 -0.6424847,-1.105292 l -0.3579673,-0.27003 -7.074e-4,-6.67e-4 c -0.050277,-0.05723 -0.1227894,-0.09002 -0.1989713,-0.09001 z m -3.09206,0.83078 c -0.018764,0.225092 -0.2098574,0.405216 -0.4393577,0.405216 -0.2043069,0 -0.3782213,-0.142676 -0.4272881,-0.332794 -0.102164,0.180156 -0.183712,0.368742 -0.2431306,0.562819 0.349183,0.126505 0.5818562,0.458012 0.5821328,0.829401 -3.533e-4,0.3713886 -0.2329498,0.7028967 -0.5821328,0.8294008 0.122809,0.401135 0.3368058,0.7806407 0.6421392,1.1052915 l 0.3579708,0.2700293 7.343e-4,6.676e-4 c 0.050293,0.057226 0.1228058,0.090021 0.1989877,0.09001 0.146277,0 0.2648567,-0.1185808 0.2648567,-0.2648567 0,-0.1462759 -0.1185797,-0.2648566 -0.2648567,-0.2648566 -0.048393,-1.78e-5 -0.095865,0.01322 -0.1372571,0.038284 l -0.212437,-0.077245 0.1386347,-0.1386369 1.5870701,-1.587414 z m -1.4104982,0.758359 a 0.70628345,0.70628345 0 0 0 -0.7062829,0.706283 0.70628345,0.70628345 0 0 0 0.7062829,0.7062841 0.70628345,0.70628345 0 0 0 0.7062839,-0.7062841 0.70628345,0.70628345 0 0 0 -0.7062839,-0.706283 z m 6.0034103,0 a 0.70628345,0.70628345 0 0 0 -0.7062838,0.706283 0.70628345,0.70628345 0 0 0 0.7062838,0.7062841 0.70628345,0.70628345 0 0 0 0.706283,-0.7062841 0.70628345,0.70628345 0 0 0 -0.706283,-0.706283 z m -3.0023948,0.8311236 -1.4656763,1.4660212 c 0.2257374,0.018098 0.4065964,0.2097352 0.4065964,0.4397032 0,0.2046858 -0.1431818,0.3789301 -0.3338295,0.4276325 0.180419,0.1023307 0.3695092,0.1836342 0.5638542,0.2431295 0.1265041,-0.3491797 0.4580106,-0.5818551 0.8294007,-0.5821317 0.371389,2.822e-4 0.7028956,0.232952 0.8293997,0.5821317 0.4011261,-0.1227979 0.7806462,-0.3368158 1.1052926,-0.6421381 l 0.27003,-0.3579697 7.341e-4,-6.677e-4 c 0.057226,-0.050293 0.090022,-0.122799 0.090011,-0.1989865 0,-0.1462759 -0.1185795,-0.2648567 -0.2648563,-0.2648567 -0.1462766,0 -0.2648564,0.1185808 -0.2648564,0.2648567 -1.76e-5,0.048393 0.013225,0.095865 0.038278,0.1372559 l -0.096589,0.193123 -0.1193229,-0.1193229 z m 3.522e-4,2.1709254 a 0.70628345,0.70628345 0 0 0 -0.7062829,0.706284 0.70628345,0.70628345 0 0 0 0.7062829,0.7062828 0.70628345,0.70628345 0 0 0 0.706284,-0.7062828 0.70628345,0.70628345 0 0 0 -0.706284,-0.706284 z" />
    </g>
    <g
       aria-label="KIMMUNITY"
       id="text6619"
       style="font-size:10.0017px;line-height:1.25;stroke-width:0.250044">
      <path
         d="m 13.375501,-6.4905896 q -0.310053,0 -0.310053,-0.3300561 v -6.3410783 q 0,-0.330056 0.310053,-0.330056 0.300051,0 0.300051,0.330056 v 2.740466 l 3.160537,-2.860486 q 0.110019,-0.130022 0.210036,-0.170029 0.100017,-0.04001 0.240041,-0.04001 0.230039,0 0.270046,0.140024 0.05001,0.130022 -0.08001,0.270046 l -3.230549,2.870488 3.510597,3.3505695 q 0.110019,0.1300221 0.07001,0.2700459 -0.04001,0.1300221 -0.270046,0.1300221 -0.170029,0 -0.280048,-0.06001 -0.110018,-0.06001 -0.190032,-0.1500255 l -3.41058,-3.35057 v 3.2005445 q 0,0.3300561 -0.300051,0.3300561 z"
         style="font-family:'Zen Maru Gothic';-inkscape-font-specification:'Zen Maru Gothic';fill:#eff1e5"
         id="path10659" />
      <path
         d="m 19.426525,-6.4905896 q -0.310053,0 -0.310053,-0.3300561 v -6.3410783 q 0,-0.330056 0.310053,-0.330056 0.300051,0 0.300051,0.330056 v 6.3410783 q 0,0.3300561 -0.300051,0.3300561 z"
         style="font-family:'Zen Maru Gothic';-inkscape-font-specification:'Zen Maru Gothic';fill:#eff1e5"
         id="path10661" />
      <path
         d="m 21.726911,-6.4905896 q -0.310053,0 -0.310053,-0.3300561 v -6.3410783 q 0,-0.330056 0.360062,-0.330056 0.260044,0 0.390066,0.220038 l 2.270386,3.3905759 2.250382,-3.3905759 q 0.08001,-0.130023 0.180031,-0.170029 0.100017,-0.05001 0.250043,-0.05001 0.330056,0 0.330056,0.330056 v 6.3410783 q 0,0.3300561 -0.310053,0.3300561 -0.320054,0 -0.320054,-0.3300561 v -5.6009523 l -2.080354,3.1505357 q -0.130022,0.2200374 -0.300051,0.2200374 -0.180031,0 -0.310053,-0.2200374 l -2.090355,-3.1505357 v 5.6009523 q 0,0.3300561 -0.310053,0.3300571 z"
         style="font-family:'Zen Maru Gothic';-inkscape-font-specification:'Zen Maru Gothic';fill:#eff1e5"
         id="path10663" />
      <path
         d="m 29.438222,-6.4905896 q -0.310052,0 -0.310052,-0.3300561 v -6.3410783 q 0,-0.330056 0.360061,-0.330056 0.260044,0 0.390066,0.220038 l 2.270386,3.3905759 2.250383,-3.3905759 q 0.08001,-0.130023 0.18003,-0.170029 0.100017,-0.05001 0.250043,-0.05001 0.330056,0 0.330056,0.330056 v 6.3410783 q 0,0.3300561 -0.310053,0.3300561 -0.320054,0 -0.320054,-0.3300561 v -5.6009523 l -2.080354,3.1505357 q -0.130022,0.2200374 -0.300051,0.2200374 -0.18003,0 -0.310053,-0.2200374 l -2.090355,-3.1505357 v 5.6009523 q 0,0.3300561 -0.310053,0.3300571 z"
         style="font-family:'Zen Maru Gothic';-inkscape-font-specification:'Zen Maru Gothic';fill:#eff1e5"
         id="path10665" />
      <path
         d="m 39.249889,-6.3705692 q -1.200204,0 -1.860316,-0.7201224 -0.650111,-0.7301242 -0.650111,-2.1203605 v -3.9506719 q 0,-0.330056 0.320054,-0.330056 0.310053,0 0.310053,0.330056 v 3.9306685 q 0,1.0601802 0.47008,1.6602822 0.480082,0.5901004 1.41024,0.5901004 0.94016,0 1.41024,-0.5901004 0.480081,-0.600102 0.480081,-1.6602822 v -3.9306685 q 0,-0.330056 0.310053,-0.330056 0.310053,0 0.310053,0.330056 v 3.9506719 q 0,1.3902363 -0.650111,2.1203605 -0.65011,0.7201224 -1.860316,0.7201224 z"
         style="font-family:'Zen Maru Gothic';-inkscape-font-specification:'Zen Maru Gothic';fill:#eff1e5"
         id="path10667" />
      <path
         d="m 43.660629,-6.4905896 q -0.310053,0 -0.310053,-0.3300561 v -6.3410783 q 0,-0.330056 0.310053,-0.330056 h 0.05001 q 0.250043,0 0.400068,0.220038 l 3.800646,5.6809653 v -5.5709473 q 0,-0.330056 0.320055,-0.330056 0.300051,0 0.300051,0.330056 v 6.3410783 q 0,0.3300561 -0.290049,0.3300561 H 48.1814 q -0.260044,0 -0.390066,-0.2200374 l -3.830651,-5.740976 v 5.6309573 q 0,0.3300561 -0.300051,0.3300561 z"
         style="font-family:'Zen Maru Gothic';-inkscape-font-specification:'Zen Maru Gothic';fill:#eff1e5"
         id="path10669" />
      <path
         d="m 50.521802,-6.4905896 q -0.310052,0 -0.310052,-0.3300561 v -6.3410783 q 0,-0.330056 0.310052,-0.330056 0.300051,0 0.300051,0.330056 v 6.3410783 q 0,0.3300561 -0.300051,0.3300561 z"
         style="font-family:'Zen Maru Gothic';-inkscape-font-specification:'Zen Maru Gothic';fill:#eff1e5"
         id="path10671" />
      <path
         d="m 54.672505,-6.4905896 q -0.320054,0 -0.320054,-0.3300561 v -6.0910353 h -1.970335 q -0.330056,0 -0.330056,-0.29005 0,-0.290049 0.330056,-0.290049 h 4.560775 q 0.340058,0 0.340058,0.290049 0,0.29005 -0.340058,0.29005 h -1.960333 v 6.0910353 q 0,0.3300561 -0.310053,0.3300561 z"
         style="font-family:'Zen Maru Gothic';-inkscape-font-specification:'Zen Maru Gothic';fill:#eff1e5"
         id="path10673" />
      <path
         d="m 60.593506,-6.4905896 q -0.320055,0 -0.320055,-0.3300561 v -2.670454 l -2.100357,-3.6006123 q -0.100017,-0.18003 -0.05001,-0.290049 0.06001,-0.110019 0.250042,-0.110019 0.160027,0 0.250043,0.06001 0.100017,0.05001 0.170028,0.170029 l 1.790305,3.090526 1.790304,-3.090526 q 0.120021,-0.230039 0.390067,-0.230039 0.200034,0 0.260044,0.120021 0.07001,0.110018 -0.04001,0.280047 l -2.080354,3.6006123 v 2.670454 q 0,0.3300561 -0.310052,0.3300561 z"
         style="font-family:'Zen Maru Gothic';-inkscape-font-specification:'Zen Maru Gothic';fill:#eff1e5"
         id="path10675" />
    </g>
  </g>
</svg>
