<?xml version="1.0" encoding="UTF-8" standalone="no"?>
<!-- Created with Inkscape (http://www.inkscape.org/) -->

<svg
   width="42"
   height="42"
   viewBox="0 0 11.112507 11.1125"
   version="1.1"
   id="svg5"
   inkscape:version="1.1.2 (0a00cf5339, 2022-02-04, custom)"
   sodipodi:docname="kimmunity_titlebar_smol.svg"
   inkscape:export-filename="/home/kim/Workspace/Go/src/borderstone.org/kimmunity/static/images/kimmunity.png"
   inkscape:export-xdpi="192"
   inkscape:export-ydpi="192"
   xmlns:inkscape="http://www.inkscape.org/namespaces/inkscape"
   xmlns:sodipodi="http://sodipodi.sourceforge.net/DTD/sodipodi-0.dtd"
   xmlns="http://www.w3.org/2000/svg"
   xmlns:svg="http://www.w3.org/2000/svg">
  <sodipodi:namedview
     id="namedview7"
     pagecolor="#21222c"
     bordercolor="#111111"
     borderopacity="1"
     inkscape:pageshadow="0"
     inkscape:pageopacity="0"
     inkscape:pagecheckerboard="false"
     inkscape:document-units="px"
     showgrid="false"
     units="px"
     showguides="false"
     inkscape:guide-bbox="true"
     inkscape:zoom="2.8284272"
     inkscape:cx="117.02617"
     inkscape:cy="-7.9549511"
     inkscape:window-width="1920"
     inkscape:window-height="1051"
     inkscape:window-x="0"
     inkscape:window-y="0"
     inkscape:window-maximized="1"
     inkscape:current-layer="layer1"
     fit-margin-top="0"
     fit-margin-left="0"
     fit-margin-right="0"
     fit-margin-bottom="0"
     inkscape:lockguides="true" />
  <defs
     id="defs2" />
  <g
     inkscape:label="Layer 1"
     inkscape:groupmode="layer"
     id="layer1"
     transform="translate(-0.30143306,15.487426)">
    <path
       id="path1425"
       style="fill:#f6d78c;stroke-width:0.61725;stroke-linecap:round"
       inkscape:transform-center-x="-8.9932586e-05"
       inkscape:transform-center-y="-1.2712887"
       d="m 5.8576848,-13.639335 a 0.70628345,0.70628345 0 0 0 -0.706283,0.706284 0.70628345,0.70628345 0 0 0 0.706283,0.706283 0.70628345,0.70628345 0 0 0 0.706283,-0.706283 0.70628345,0.70628345 0 0 0 -0.706283,-0.706284 z m -0.829401,1.007006 c -0.401206,0.122824 -0.780602,0.337063 -1.105291,0.642484 l -0.27003,0.357969 -7.35e-4,6.68e-4 c -0.0572,0.0503 -0.09001,0.122804 -0.08999,0.198989 0,0.146276 0.11858,0.264857 0.264857,0.264857 0.146277,0 0.264856,-0.118581 0.264856,-0.264857 1.7e-5,-0.04839 -0.01323,-0.09586 -0.03828,-0.137256 l 0.08208,-0.207609 0.133807,0.133808 1.587759,1.587413 1.466364,-1.466366 c -0.225737,-0.0181 -0.406595,-0.209734 -0.406595,-0.439703 0,-0.20457 0.142998,-0.378829 0.333485,-0.427633 -0.180237,-0.102242 -0.369331,-0.18334 -0.563509,-0.242785 -0.126504,0.349181 -0.458011,0.581855 -0.829401,0.582133 -0.37139,-2.82e-4 -0.702897,-0.232952 -0.829401,-0.582133 z m 2.330254,0.405561 c -0.146277,0 -0.264857,0.118581 -0.264857,0.264857 0,0.146276 0.11858,0.264856 0.264857,0.264856 0.04839,1.8e-5 0.09586,-0.01322 0.137255,-0.03828 l 0.215196,0.07449 -0.141395,0.141394 -1.587759,1.5881038 1.466366,1.4663659 c 0.01795,-0.2218824 0.203513,-0.4004495 0.428323,-0.4062498 0.0038,-9.78e-5 0.0076,0 0.01139,0 0.204419,0 0.378337,0.1428596 0.427287,0.3331385 0.102326,-0.1804135 0.183976,-0.3695148 0.243475,-0.5638542 -0.349191,-0.1265008 -0.58186,-0.4580089 -0.58214,-0.8294004 3.54e-4,-0.3713898 0.232951,-0.7028958 0.582133,-0.8293998 -0.122829,-0.401208 -0.337062,-0.780603 -0.642485,-1.105292 l -0.357967,-0.27003 -7.07e-4,-6.67e-4 c -0.05028,-0.05723 -0.12279,-0.09002 -0.198972,-0.09001 z m -3.09206,0.83078 c -0.01876,0.225092 -0.209858,0.405216 -0.439358,0.405216 -0.204307,0 -0.378221,-0.142676 -0.427288,-0.332794 -0.102164,0.180156 -0.183712,0.368742 -0.24313,0.562819 0.349182,0.126505 0.581856,0.458012 0.582132,0.8294008 -3.53e-4,0.3713886 -0.23295,0.7028967 -0.582132,0.8294008 0.122808,0.401135 0.336805,0.7806407 0.642139,1.1052915 l 0.357971,0.2700293 7.34e-4,6.676e-4 c 0.05029,0.057226 0.122806,0.090021 0.198988,0.09001 0.146277,0 0.264856,-0.1185808 0.264856,-0.2648567 0,-0.1462759 -0.118579,-0.2648566 -0.264856,-0.2648566 -0.04839,-1.78e-5 -0.09587,0.01322 -0.137258,0.038284 l -0.212437,-0.077245 0.138635,-0.1386369 1.58707,-1.587414 z m -1.410498,0.758359 a 0.70628345,0.70628345 0 0 0 -0.706283,0.7062828 0.70628345,0.70628345 0 0 0 0.706283,0.7062841 0.70628345,0.70628345 0 0 0 0.706284,-0.7062841 0.70628345,0.70628345 0 0 0 -0.706284,-0.7062828 z m 6.00341,0 a 0.70628345,0.70628345 0 0 0 -0.706284,0.7062828 0.70628345,0.70628345 0 0 0 0.706284,0.7062841 0.70628345,0.70628345 0 0 0 0.706283,-0.7062841 0.70628345,0.70628345 0 0 0 -0.706283,-0.7062828 z m -3.002395,0.8311234 -1.465676,1.4660212 c 0.225737,0.018098 0.406596,0.2097352 0.406596,0.4397032 0,0.2046858 -0.143181,0.3789301 -0.333829,0.4276325 0.180419,0.1023307 0.369509,0.1836342 0.563854,0.2431295 0.126504,-0.3491797 0.458011,-0.5818551 0.829401,-0.5821317 0.371389,2.822e-4 0.702895,0.232952 0.829399,0.5821317 0.401127,-0.1227979 0.780647,-0.3368158 1.105293,-0.6421381 l 0.27003,-0.3579697 7.34e-4,-6.677e-4 c 0.05723,-0.050293 0.09002,-0.122799 0.09001,-0.1989865 0,-0.1462759 -0.118579,-0.2648567 -0.264856,-0.2648567 -0.146277,0 -0.264857,0.1185808 -0.264857,0.2648567 -1.7e-5,0.048393 0.01322,0.095865 0.03828,0.1372559 l -0.09659,0.193123 -0.119322,-0.1193229 z m 3.52e-4,2.1709254 a 0.70628345,0.70628345 0 0 0 -0.706282,0.706284 0.70628345,0.70628345 0 0 0 0.706282,0.7062828 0.70628345,0.70628345 0 0 0 0.706284,-0.7062828 0.70628345,0.70628345 0 0 0 -0.706284,-0.706284 z" />
  </g>
</svg>
