<?xml version="1.0" encoding="UTF-8" standalone="no"?>
<!-- Created with Inkscape (http://www.inkscape.org/) -->

<svg
   width="380"
   height="50"
   viewBox="0 0 100.54166 13.229167"
   version="1.1"
   id="svg5"
   inkscape:version="1.1.2 (0a00cf5339, 2022-02-04, custom)"
   sodipodi:docname="kimmunity.svg"
   inkscape:export-filename="/home/kim/Workspace/Go/src/borderstone.org/konvergens/static/images/kimmunity.png"
   inkscape:export-xdpi="192"
   inkscape:export-ydpi="192"
   xmlns:inkscape="http://www.inkscape.org/namespaces/inkscape"
   xmlns:sodipodi="http://sodipodi.sourceforge.net/DTD/sodipodi-0.dtd"
   xmlns="http://www.w3.org/2000/svg"
   xmlns:svg="http://www.w3.org/2000/svg">
  <sodipodi:namedview
     id="namedview7"
     pagecolor="#231a1a"
     bordercolor="#111111"
     borderopacity="1"
     inkscape:pageshadow="0"
     inkscape:pageopacity="0"
     inkscape:pagecheckerboard="false"
     inkscape:document-units="px"
     showgrid="false"
     units="px"
     showguides="false"
     inkscape:guide-bbox="true"
     inkscape:zoom="1.4142136"
     inkscape:cx="97.580733"
     inkscape:cy="44.901279"
     inkscape:window-width="1920"
     inkscape:window-height="1051"
     inkscape:window-x="0"
     inkscape:window-y="0"
     inkscape:window-maximized="1"
     inkscape:current-layer="layer1"
     fit-margin-top="0"
     fit-margin-left="0"
     fit-margin-right="0"
     fit-margin-bottom="0" />
  <defs
     id="defs2" />
  <g
     inkscape:label="Layer 1"
     inkscape:groupmode="layer"
     id="layer1"
     transform="translate(-0.30143306,15.487426)">
    <path
       id="path1425"
       style="fill:#f6d78c;stroke-width:0.924922;stroke-linecap:round"
       inkscape:transform-center-x="-0.00014969683"
       inkscape:transform-center-y="-2.116346"
       d="m 6.965279,-14.429351 a 1.0583333,1.0583333 0 0 0 -1.0583333,1.058334 1.0583333,1.0583333 0 0 0 1.0583333,1.058333 1.0583333,1.0583333 0 0 0 1.0583333,-1.058333 1.0583333,1.0583333 0 0 0 -1.0583333,-1.058334 z m -1.2428193,1.508952 c -0.6011889,0.184045 -1.1696965,0.505073 -1.6562282,0.962732 l -0.4046273,0.536402 -0.00106,10e-4 c -0.085717,0.07537 -0.1348767,0.184015 -0.1348502,0.298175 0,0.219188 0.1776862,0.396875 0.396875,0.396875 0.2191888,0 0.396875,-0.177687 0.396875,-0.396875 2.64e-5,-0.07251 -0.019817,-0.143642 -0.057362,-0.205672 l 0.1229916,-0.311092 0.2005039,0.200504 2.3791836,2.3786661 2.1972798,-2.1972821 c -0.3382565,-0.02712 -0.6092639,-0.314277 -0.6092639,-0.658874 0,-0.306539 0.2142754,-0.567658 0.4997106,-0.640788 -0.2700761,-0.153202 -0.5534237,-0.274726 -0.8443913,-0.363802 -0.1895607,0.523231 -0.686308,0.871883 -1.2428193,0.872298 -0.5565114,-4.23e-4 -1.0532586,-0.349067 -1.2428193,-0.872298 z m 3.4917776,0.607715 c -0.2191888,0 -0.396875,0.177687 -0.396875,0.396875 0,0.219188 0.1776862,0.396875 0.396875,0.396875 0.072509,2.7e-5 0.1436423,-0.01981 0.2056712,-0.05736 l 0.3224609,0.111621 -0.211873,0.211873 -2.3791836,2.3796999 2.1972826,2.1972821 c 0.026908,-0.3324818 0.3049534,-0.6000549 0.6418209,-0.6087486 0.00564,-1.453e-4 0.011404,0 0.017066,0 0.306313,0 0.56692,0.2140691 0.64027,0.4991944 0.153332,-0.2703407 0.27568,-0.5537007 0.364837,-0.8449096 -0.523248,-0.189557 -0.871892,-0.6863053 -0.87231,-1.2428183 5.29e-4,-0.5565102 0.349065,-1.0532575 0.872299,-1.2428179 -0.184054,-0.601191 -0.505073,-1.169697 -0.962734,-1.656229 l -0.5363979,-0.404627 -0.00106,-10e-4 c -0.075337,-0.08575 -0.1839939,-0.134889 -0.2981484,-0.134877 z m -4.6333092,1.244885 c -0.028123,0.33729 -0.3144626,0.607198 -0.6583574,0.607198 -0.3061441,0 -0.5667481,-0.213794 -0.6402705,-0.498677 -0.15308,0.269955 -0.2752857,0.552542 -0.3643207,0.843359 0.5232347,0.1895604 0.8718841,0.6863077 0.8722995,1.2428179 -5.291e-4,0.5565103 -0.3490648,1.0532576 -0.8722995,1.2428183 0.184023,0.6010833 0.5046875,1.1697549 0.9622155,1.6562295 l 0.536403,0.4046265 0.00106,0.00103 c 0.075361,0.085746 0.1840203,0.134888 0.2981748,0.1348756 0.2191888,0 0.396875,-0.1776871 0.396875,-0.396875 0,-0.219188 -0.1776862,-0.396875 -0.396875,-0.396875 -0.072512,-2.76e-5 -0.1436423,0.019812 -0.2056738,0.057361 L 4.1918319,-6.2856637 4.3995695,-6.4934029 6.7777212,-8.8720692 Z m -2.1135657,1.1363646 a 1.0583333,1.0583333 0 0 0 -1.0583333,1.0583333 1.0583333,1.0583333 0 0 0 1.0583333,1.0583334 1.0583333,1.0583333 0 0 0 1.0583333,-1.0583334 1.0583333,1.0583333 0 0 0 -1.0583333,-1.0583333 z m 8.9958336,0 a 1.0583333,1.0583333 0 0 0 -1.058334,1.0583333 1.0583333,1.0583333 0 0 0 1.058334,1.0583334 1.0583333,1.0583333 0 0 0 1.058333,-1.0583334 1.0583333,1.0583333 0 0 0 -1.058333,-1.0583333 z m -4.4989515,1.245402 -2.196248,2.1967652 c 0.3382565,0.027117 0.6092666,0.3142777 0.6092666,0.6588744 0,0.3067122 -0.2145506,0.5678086 -0.5002292,0.6407878 0.2703512,0.1533345 0.5536935,0.2751669 0.8449098,0.3643188 0.1895607,-0.5232307 0.686308,-0.8718833 1.2428194,-0.8722982 0.5565087,4.234e-4 1.0532559,0.3490683 1.2428166,0.8722982 0.6010699,-0.1840082 1.1697626,-0.5047035 1.6562308,-0.9622152 l 0.4046275,-0.5364012 0.0011,-0.00103 c 0.08575,-0.075366 0.134895,-0.1840089 0.134877,-0.2981729 0,-0.219188 -0.177686,-0.396875 -0.396875,-0.396875 -0.219189,0 -0.3968752,0.177687 -0.3968752,0.396875 -2.64e-5,0.07251 0.019817,0.143642 0.057359,0.2056722 L 9.5232891,-6.1280471 9.344489,-6.3068475 Z m 5.291e-4,3.2530314 A 1.0583333,1.0583333 0 0 0 5.9064403,-4.3746677 1.0583333,1.0583333 0 0 0 6.9647736,-3.3163344 1.0583333,1.0583333 0 0 0 8.023107,-4.3746677 1.0583333,1.0583333 0 0 0 6.9647736,-5.433001 Z" />
    <g
       id="g13064"
       transform="translate(0,-0.1623865)">
      <g
         aria-label="KIMMUNITY"
         id="text6619"
         style="font-size:14.9871px;line-height:1.25;stroke-width:0.374679">
        <path
           d="m 16.342082,-3.5548918 q -0.4646,0 -0.4646,-0.4945743 v -9.5018209 q 0,-0.494575 0.4646,-0.494575 0.449613,0 0.449613,0.494575 v 4.106465 l 4.735923,-4.28631 q 0.164859,-0.194833 0.31473,-0.254781 0.149871,-0.05995 0.35969,-0.05995 0.344703,0 0.404652,0.20982 0.07493,0.194832 -0.119897,0.404652 l -4.840833,4.3012971 5.260472,5.0206784 q 0.164858,0.1948323 0.104909,0.4046517 -0.05995,0.1948323 -0.404651,0.1948323 -0.254781,0 -0.419639,-0.089923 -0.164858,-0.089923 -0.284755,-0.2248065 l -5.110601,-5.020677 v 4.7958719 q 0,0.4945743 -0.449613,0.4945743 z"
           style="font-family:'Zen Maru Gothic';-inkscape-font-specification:'Zen Maru Gothic';fill:#eff1e5"
           id="path13017" />
        <path
           d="m 25.40927,-3.5548918 q -0.4646,0 -0.4646,-0.4945743 v -9.5018209 q 0,-0.494575 0.4646,-0.494575 0.449613,0 0.449613,0.494575 v 9.5018209 q 0,0.4945743 -0.449613,0.4945743 z"
           style="font-family:'Zen Maru Gothic';-inkscape-font-specification:'Zen Maru Gothic';fill:#eff1e5"
           id="path13019" />
        <path
           d="m 28.856297,-3.5548918 q -0.464601,0 -0.464601,-0.4945743 v -9.5018209 q 0,-0.494575 0.539536,-0.494575 0.389665,0 0.584497,0.329717 l 3.402072,5.0806264 3.372097,-5.0806264 q 0.119897,-0.194833 0.269768,-0.254781 0.149871,-0.07494 0.374677,-0.07494 0.494575,0 0.494575,0.494575 v 9.5018209 q 0,0.4945743 -0.464601,0.4945743 -0.479587,0 -0.479587,-0.4945743 v -8.3927759 l -3.117316,4.7209365 q -0.194833,0.3297162 -0.449613,0.3297162 -0.269768,0 -0.464601,-0.3297162 l -3.132303,-4.7209365 v 8.3927759 q 0,0.4945743 -0.4646,0.4945743 z"
           style="font-family:'Zen Maru Gothic';-inkscape-font-specification:'Zen Maru Gothic';fill:#eff1e5"
           id="path13021" />
        <path
           d="m 40.411349,-3.5548918 q -0.4646,0 -0.4646,-0.4945743 v -9.5018209 q 0,-0.494575 0.539536,-0.494575 0.389664,0 0.584497,0.329717 l 3.402071,5.0806264 3.372098,-5.0806264 q 0.119897,-0.194833 0.269768,-0.254781 0.149871,-0.07494 0.374677,-0.07494 0.494574,0 0.494574,0.494575 v 9.5018209 q 0,0.4945743 -0.4646,0.4945743 -0.479587,0 -0.479587,-0.4945743 v -8.3927759 l -3.117317,4.7209365 q -0.194832,0.3297162 -0.449613,0.3297162 -0.269767,0 -0.4646,-0.3297162 l -3.132304,-4.7209365 v 8.3927759 q 0,0.4945743 -0.4646,0.4945743 z"
           style="font-family:'Zen Maru Gothic';-inkscape-font-specification:'Zen Maru Gothic';fill:#eff1e5"
           id="path13023" />
        <path
           d="m 55.113694,-3.3750466 q -1.798452,0 -2.787601,-1.0790712 -0.974161,-1.0940583 -0.974161,-3.1772651 v -5.9199041 q 0,-0.494575 0.479587,-0.494575 0.4646,0 0.4646,0.494575 v 5.8899299 q 0,1.5886325 0.704394,2.4878585 0.719381,0.8842389 2.113181,0.8842389 1.408787,0 2.113181,-0.8842389 0.719381,-0.899226 0.719381,-2.4878585 v -5.8899299 q 0,-0.494575 0.4646,-0.494575 0.4646,0 0.4646,0.494575 v 5.9199041 q 0,2.0832068 -0.974162,3.1772651 -0.974161,1.0790712 -2.7876,1.0790712 z"
           style="font-family:'Zen Maru Gothic';-inkscape-font-specification:'Zen Maru Gothic';fill:#eff1e5"
           id="path13025" />
        <path
           d="m 61.722991,-3.5548918 q -0.4646,0 -0.4646,-0.4945743 v -9.5018209 q 0,-0.494575 0.4646,-0.494575 h 0.07493 q 0.374678,0 0.599484,0.329717 l 5.695098,8.5126722 v -8.3478142 q 0,-0.494575 0.479588,-0.494575 0.449613,0 0.449613,0.494575 v 9.5018209 q 0,0.4945743 -0.434626,0.4945743 h -0.08992 q -0.389665,0 -0.584497,-0.3297162 l -5.740059,-8.602595 v 8.4377369 q 0,0.4945743 -0.449613,0.4945743 z"
           style="font-family:'Zen Maru Gothic';-inkscape-font-specification:'Zen Maru Gothic';fill:#eff1e5"
           id="path13027" />
        <path
           d="m 72.004153,-3.5548918 q -0.4646,0 -0.4646,-0.4945743 v -9.5018209 q 0,-0.494575 0.4646,-0.494575 0.449613,0 0.449613,0.494575 v 9.5018209 q 0,0.4945743 -0.449613,0.4945743 z"
           style="font-family:'Zen Maru Gothic';-inkscape-font-specification:'Zen Maru Gothic';fill:#eff1e5"
           id="path13029" />
        <path
           d="m 78.223792,-3.5548918 q -0.479587,0 -0.479587,-0.4945743 V -13.17661 h -2.952459 q -0.494574,0 -0.494574,-0.434626 0,-0.434626 0.494574,-0.434626 h 6.834118 q 0.509561,0 0.509561,0.434626 0,0.434626 -0.509561,0.434626 h -2.937472 v 9.1271439 q 0,0.4945743 -0.4646,0.4945743 z"
           style="font-family:'Zen Maru Gothic';-inkscape-font-specification:'Zen Maru Gothic';fill:#eff1e5"
           id="path13031" />
        <path
           d="m 87.096146,-3.5548918 q -0.479587,0 -0.479587,-0.4945743 v -4.0015556 l -3.147291,-5.3953563 q -0.149871,-0.269767 -0.07494,-0.434625 0.08992,-0.164859 0.374678,-0.164859 0.239793,0 0.374677,0.08992 0.149871,0.07494 0.254781,0.254781 l 2.682691,4.6310135 2.682691,-4.6310135 q 0.179845,-0.344704 0.584496,-0.344704 0.299742,0 0.389665,0.179846 0.10491,0.164858 -0.05995,0.419638 l -3.117317,5.3953563 v 4.0015556 q 0,0.4945743 -0.4646,0.4945743 z"
           style="font-family:'Zen Maru Gothic';-inkscape-font-specification:'Zen Maru Gothic';fill:#eff1e5"
           id="path13033" />
      </g>
    </g>
  </g>
</svg>
