<?xml version="1.0" encoding="UTF-8" standalone="no"?>
<!-- Created with Inkscape (http://www.inkscape.org/) -->

<svg
   width="42"
   height="42"
   viewBox="0 0 11.112507 11.1125"
   version="1.1"
   id="svg5"
   inkscape:version="1.1.2 (0a00cf5339, 2022-02-04, custom)"
   sodipodi:docname="kimmunity_titlebar_smol.svg"
   inkscape:export-filename="/home/kim/Workspace/Go/src/borderstone.org/kimmunity/static/images/kimmunity.png"
   inkscape:export-xdpi="192"
   inkscape:export-ydpi="192"
   xmlns:inkscape="http://www.inkscape.org/namespaces/inkscape"
   xmlns:sodipodi="http://sodipodi.sourceforge.net/DTD/sodipodi-0.dtd"
   xmlns="http://www.w3.org/2000/svg"
   xmlns:svg="http://www.w3.org/2000/svg">
  <sodipodi:namedview
     id="namedview7"
     pagecolor="#21222c"
     bordercolor="#111111"
     borderopacity="1"
     inkscape:pageshadow="0"
     inkscape:pageopacity="0"
     inkscape:pagecheckerboard="false"
     inkscape:document-units="px"
     showgrid="false"
     units="px"
     showguides="false"
     inkscape:guide-bbox="true"
     inkscape:zoom="2.8284272"
     inkscape:cx="116.67262"
     inkscape:cy="-7.9549511"
     inkscape:window-width="1920"
     inkscape:window-height="1051"
     inkscape:window-x="0"
     inkscape:window-y="0"
     inkscape:window-maximized="1"
     inkscape:current-layer="layer1"
     fit-margin-top="0"
     fit-margin-left="0"
     fit-margin-right="0"
     fit-margin-bottom="0"
     inkscape:lockguides="true" />
  <defs
     id="defs2" />
  <g
     inkscape:label="Layer 1"
     inkscape:groupmode="layer"
     id="layer1"
     transform="translate(-0.30143306,15.487426)">
    <g
       id="g1038"
       transform="translate(-1.5934251)">
      <path
         style="fill:#f6d78e;fill-opacity:1;stroke:none;stroke-width:0.319683;stroke-linecap:round;stroke-miterlimit:4;stroke-dasharray:none;stroke-opacity:1"
         d="m 7.4511095,-9.5271388 -1.155559,2.7898553 a 3.4064965,3.4064965 0 0 0 0.845878,0.1968777 v 0.3254074 h 0.619363 v -0.3254074 a 3.4064965,3.4064965 0 0 0 0.845576,-0.1968777 z"
         id="path38695" />
      <path
         style="fill:#f6d78e;fill-opacity:1;stroke:none;stroke-width:0.319683;stroke-linecap:round;stroke-miterlimit:4;stroke-dasharray:none;stroke-opacity:1"
         d="M 7.1653195,-9.64538 4.375767,-8.4898204 a 3.4064965,3.4064965 0 0 0 0.4590787,0.7370056 l -0.2304467,0.2304467 0.4379086,0.437909 0.2304469,-0.2304467 a 3.4064965,3.4064965 0 0 0 0.737006,0.4590787 z"
         id="path38693" />
      <path
         style="fill:#f6d78e;fill-opacity:1;stroke:none;stroke-width:0.319683;stroke-linecap:round;stroke-miterlimit:4;stroke-dasharray:none;stroke-opacity:1"
         d="m 7.7365975,-9.6456897 1.155862,2.7898553 a 3.4064965,3.4064965 0 0 0 0.737006,-0.4590786 l 0.230446,0.2304467 0.4379095,-0.437909 -0.230446,-0.2304467 a 3.4064965,3.4064965 0 0 0 0.459078,-0.7370056 z"
         id="path38691" />
      <path
         style="fill:#f6d78e;fill-opacity:1;stroke:none;stroke-width:0.319683;stroke-linecap:round;stroke-miterlimit:4;stroke-dasharray:none;stroke-opacity:1"
         d="m 4.2572171,-11.086737 a 3.4064965,3.4064965 0 0 0 -0.1968777,0.845879 H 3.7349319 v 0.6193631 h 0.3254075 a 3.4064965,3.4064965 0 0 0 0.1968777,0.8455758 l 2.7892504,-1.1552573 z"
         id="path38689" />
      <path
         style="fill:#f6d78e;fill-opacity:1;stroke:none;stroke-width:0.319683;stroke-linecap:round;stroke-miterlimit:4;stroke-dasharray:none;stroke-opacity:1"
         d="m 10.646515,-11.087341 -2.7910655,1.1561646 2.7895535,1.1552573 a 3.4064965,3.4064965 0 0 0 0.196878,-0.8455758 h 0.325407 v -0.6193631 h -0.324197 a 3.4064965,3.4064965 0 0 0 -0.196576,-0.846483 z"
         id="path38687" />
      <path
         style="fill:#f6d78e;fill-opacity:1;stroke:none;stroke-width:0.319683;stroke-linecap:round;stroke-miterlimit:4;stroke-dasharray:none;stroke-opacity:1"
         d="m 6.0100625,-13.006816 a 3.4064965,3.4064965 0 0 0 -0.737308,0.459381 l -0.2304469,-0.230447 -0.4379086,0.437909 0.2304467,0.230447 a 3.4064965,3.4064965 0 0 0 -0.4590787,0.736703 l 2.7895525,1.155559 z"
         id="path38685" />
      <path
         style="fill:#f6d78e;fill-opacity:1;stroke:none;stroke-width:0.319683;stroke-linecap:round;stroke-miterlimit:4;stroke-dasharray:none;stroke-opacity:1"
         d="m 8.8930645,-13.008334 -1.156165,2.791368 2.7910655,-1.156467 a 3.4064965,3.4064965 0 0 0 -0.459078,-0.737611 l 0.228934,-0.228934 -0.4379095,-0.437909 -0.228934,0.228934 a 3.4064965,3.4064965 0 0 0 -0.737913,-0.459381 z"
         id="path38683" />
      <path
         style="fill:#f6d78e;fill-opacity:1;stroke:none;stroke-width:0.319683;stroke-linecap:round;stroke-miterlimit:4;stroke-dasharray:none;stroke-opacity:1"
         d="m 7.1414285,-13.647354 v 0.325407 a 3.4064965,3.4064965 0 0 0 -0.846181,0.196878 l 1.155862,2.790157 1.156165,-2.791669 a 3.4064965,3.4064965 0 0 0 -0.846483,-0.196576 v -0.324197 z"
         id="path37549" />
    </g>
  </g>
</svg>
